<svg width="15" height="15" viewBox="0 0 15 15" fill="none" xmlns="http://www.w3.org/2000/svg">
<path d="M10.1785 4.59677C9.73987 1.89617 8.70538 0 7.50151 0C6.29764 0 5.26316 1.89617 4.82456 4.59677H10.1785ZM4.5977 7.5C4.5977 8.17137 4.634 8.81552 4.69752 9.43548H10.3025C10.366 8.81552 10.4023 8.17137 10.4023 7.5C10.4023 6.82863 10.366 6.18448 10.3025 5.56452H4.69752C4.634 6.18448 4.5977 6.82863 4.5977 7.5ZM14.4192 4.59677C13.5541 2.54335 11.8028 0.955645 9.64005 0.314516C10.3781 1.33669 10.8863 2.87601 11.1525 4.59677H14.4192ZM5.35995 0.314516C3.20024 0.955645 1.44586 2.54335 0.583787 4.59677H3.85057C4.11373 2.87601 4.6219 1.33669 5.35995 0.314516ZM14.7429 5.56452H11.2734C11.337 6.1996 11.3733 6.8498 11.3733 7.5C11.3733 8.1502 11.337 8.8004 11.2734 9.43548H14.7399C14.9062 8.81552 15 8.17137 15 7.5C15 6.82863 14.9062 6.18448 14.7429 5.56452ZM3.62976 7.5C3.62976 6.8498 3.66606 6.1996 3.72958 5.56452H0.260133C0.0967937 6.18448 0 6.82863 0 7.5C0 8.17137 0.0967937 8.81552 0.260133 9.43548H3.72656C3.66606 8.8004 3.62976 8.1502 3.62976 7.5ZM4.82456 10.4032C5.26316 13.1038 6.29764 15 7.50151 15C8.70538 15 9.73987 13.1038 10.1785 10.4032H4.82456ZM9.64307 14.6855C11.8028 14.0444 13.5572 12.4567 14.4223 10.4032H11.1555C10.8893 12.124 10.3811 13.6633 9.64307 14.6855ZM0.583787 10.4032C1.44888 12.4567 3.20024 14.0444 5.36298 14.6855C4.62492 13.6633 4.11676 12.124 3.85057 10.4032H0.583787Z" fill="white"/>
</svg>
