<svg width="428" height="700" viewBox="0 0 428 700" fill="none" xmlns="http://www.w3.org/2000/svg">
<g clip-path="url(#clip0_800_3134)">
<rect width="428" height="700" fill="white"/>
<path fill-rule="evenodd" clip-rule="evenodd" d="M25.3474 61.3369C-13.1949 66.8508 -20.4777 148.374 -50.5347 183.938C-77.9005 216.318 -134.707 206.911 -140.493 257.563C-146.611 311.119 -95.7675 339.421 -73.2375 382.679C-59.9855 408.122 -51.2078 435.867 -35.795 458.583C-17.178 486.022 -1.13078 526.919 25.3474 527.979C51.8163 529.04 69.1734 489.167 88.9835 463.581C106.633 440.786 125.21 419.309 134.117 387.498C143.506 353.964 143.223 317.728 139.867 281.846C135.831 238.681 130.939 195.303 112.894 160.558C90.0288 116.53 63.072 55.94 25.3474 61.3369Z" fill="#2EA9DF"/>
<path fill-rule="evenodd" clip-rule="evenodd" d="M387.041 205.432C436.615 212.505 445.982 317.071 484.642 362.687C519.84 404.219 592.906 392.153 600.348 457.122C608.217 525.816 542.821 562.118 513.843 617.603C496.798 650.238 485.508 685.825 465.683 714.962C441.738 750.156 421.098 802.613 387.041 803.973C352.996 805.333 330.671 754.191 305.191 721.373C282.49 692.134 258.596 664.587 247.14 623.784C235.063 580.772 235.427 534.294 239.743 488.269C244.935 432.904 251.227 377.264 274.437 332.698C303.846 276.226 338.519 198.51 387.041 205.432Z" fill="#2EA9DF"/>
</g>
<defs>
<clipPath id="clip0_800_3134">
<rect width="428" height="700" fill="white"/>
</clipPath>
</defs>
</svg>
